<?xml version="1.0" encoding="iso-8859-1"?>
<!-- Generator: Adobe Illustrator 19.0.0, SVG Export Plug-In . SVG Version: 6.00 Build 0)  -->
<svg version="1.1" id="Capa_1" xmlns="http://www.w3.org/2000/svg" xmlns:xlink="http://www.w3.org/1999/xlink" x="0px" y="0px"
	 viewBox="0 0 508 508" style="enable-background:new 0 0 508 508;" xml:space="preserve">
<g>
	<g>
		<rect x="393.3" y="241.35" width="16.4" height="16.4"/>
	</g>
</g>
<g>
	<g>
		<rect x="393.3" y="274.15" width="16.4" height="16.4"/>
	</g>
</g>
<g>
	<g>
		<rect x="393.3" y="306.95" width="16.4" height="16.4"/>
	</g>
</g>
<g>
	<g>
		<path d="M401.5,29.05c-31.6,0-57.4,25.7-57.4,57.4c0,31.7,25.8,57.4,57.4,57.4c31.6,0,57.4-25.7,57.4-57.4
			C458.9,54.75,433.2,29.05,401.5,29.05z M401.5,127.55c-22.6,0-41-18.4-41-41s18.4-41,41-41c22.6,0,41,18.4,41,41
			S424.1,127.55,401.5,127.55z"/>
	</g>
</g>
<g>
	<g>
		<path d="M200.7,233.95v-74.5h-16.4v74.5c-15.4,3.5-27.1,16.7-28.5,32.8v-4.9h-46.2v16.4h46.2v-4.9c1.7,18.9,17.4,33.8,36.7,33.8
			c20.4,0,37-16.6,37-37C229.6,252.45,217.2,237.65,200.7,233.95z M192.5,290.65c-11.4,0-20.7-9.3-20.7-20.7
			c0-11.4,9.3-20.7,20.7-20.7c11.4,0,20.7,9.3,20.7,20.7C213.2,281.35,203.9,290.65,192.5,290.65z"/>
	</g>
</g>
<g>
	<g>
		<path d="M438.8,151.45l-4.4-0.3l-32.9,43.8l-32.9-43.8l-4.4,0.3c-6.1,0.4-12,1.6-17.6,3.3c-36.3-48.5-93.4-77.3-154.1-77.3
			C86.4,77.45,0,163.85,0,270.05s86.4,192.5,192.5,192.5c55,0,107.1-23.6,143.4-64.1v80.5H467v-131.1h41v-122.9
			C508,186.05,477.6,153.75,438.8,151.45z M336.1,372.25c-13.4,18.5-29.9,34-48.5,45.9l-8-13.9l-14.2,8.2l8.1,14
			c-22.3,11.5-47.1,18.3-72.7,19.5v-37.6h-16.4v37.4c-26.1-1.2-50.7-8-72.6-19.4l8-13.9l-14.2-8.2l-8,13.9
			c-21.3-13.7-39.4-31.8-53.1-53.2l13.9-8l-8.2-14.2l-13.9,8c-11.4-21.9-18.2-46.5-19.4-72.6h37.4v-16.4H16.8
			c1.2-26.1,8-50.7,19.4-72.6l13.9,8l8.2-14.2l-13.9-8c13.7-21.3,31.8-39.4,53.1-53.1l8,13.8l14.2-8.2l-8-13.9
			c21.9-11.4,46.5-18.2,72.6-19.4v37.4h16.4v-37.4c25.6,1.2,50.3,8,72.6,19.5l-8,13.9l14.2,8.2l8.1-13.9
			c16.5,10.6,31.3,24,43.7,39.7c-2.6,1.5-5,3.2-7.3,5c-0.6,0.4-1.1,0.9-1.6,1.3c-1.7,1.3-3.3,2.8-4.8,4.2c-0.7,0.6-1.3,1.2-1.9,1.9
			c-1.8,1.9-3.5,3.8-5.1,5.9c-0.6,0.8-1.2,1.7-1.8,2.5c-1,1.4-2,2.9-2.9,4.3c-0.6,1-1.2,2-1.8,3.1c-0.9,1.7-1.7,3.4-2.5,5.1
			c-0.4,0.8-0.8,1.5-1.1,2.3c-1,2.5-1.9,5-2.6,7.7c-0.2,0.8-0.4,1.7-0.6,2.6c-0.5,2-0.9,4.1-1.2,6.2c-0.1,0.9-0.3,1.7-0.4,2.6
			c-0.3,2.9-0.6,5.8-0.6,8.7v122.9h41V372.25z M491.7,331.45h-0.1h-41v131.1h-41v-114.9h-16.4v114.9h-41v-85.1v-46h-41v-106.5
			c0-2.6,0.2-5.1,0.6-7.7c0.1-0.5,0.1-1.1,0.2-1.6c0.4-2.4,0.9-4.7,1.6-7c0.2-0.5,0.3-1,0.5-1.5c0.6-2,1.4-3.9,2.3-5.8
			c0.2-0.4,0.4-0.9,0.6-1.3c1-2.1,2.2-4,3.4-5.9c0.4-0.6,0.8-1.2,1.2-1.7c1.3-1.9,2.7-3.7,4.2-5.4c0.3-0.3,0.6-0.6,0.9-0.9
			c1.6-1.7,3.3-3.3,5.1-4.9c0.2-0.1,0.3-0.3,0.5-0.4c2.1-1.7,4.3-3.3,6.7-4.7c0.1,0,0.2-0.1,0.2-0.1c2.4-1.4,4.9-2.7,7.6-3.8
			l1.1-0.4c4.1-1.6,8.5-2.8,13-3.4l40.6,54l40.6-54c28.1,3.8,49.6,28,49.6,56.8V331.45z"/>
	</g>
</g>
<g>
</g>
<g>
</g>
<g>
</g>
<g>
</g>
<g>
</g>
<g>
</g>
<g>
</g>
<g>
</g>
<g>
</g>
<g>
</g>
<g>
</g>
<g>
</g>
<g>
</g>
<g>
</g>
<g>
</g>
</svg>
