<?xml version="1.0" encoding="UTF-8" standalone="no"?>
<svg
   xmlns:dc="http://purl.org/dc/elements/1.1/"
   xmlns:cc="http://creativecommons.org/ns#"
   xmlns:rdf="http://www.w3.org/1999/02/22-rdf-syntax-ns#"
   xmlns:svg="http://www.w3.org/2000/svg"
   xmlns="http://www.w3.org/2000/svg"
   xmlns:sodipodi="http://sodipodi.sourceforge.net/DTD/sodipodi-0.dtd"
   xmlns:inkscape="http://www.inkscape.org/namespaces/inkscape"
   inkscape:version="1.0 (4035a4fb49, 2020-05-01)"
   height="37"
   width="33.999996"
   sodipodi:docname="horario2.svg"
   xml:space="preserve"
   viewBox="0 0 33.999996 37"
   y="0px"
   x="0px"
   id="Capa_1"
   version="1.1"><metadata
   id="metadata73"><rdf:RDF><cc:Work
       rdf:about=""><dc:format>image/svg+xml</dc:format><dc:type
         rdf:resource="http://purl.org/dc/dcmitype/StillImage" /><dc:title></dc:title></cc:Work></rdf:RDF></metadata><defs
   id="defs71" /><sodipodi:namedview
   inkscape:current-layer="Capa_1"
   inkscape:window-maximized="1"
   inkscape:window-y="-8"
   inkscape:window-x="-8"
   inkscape:cy="266.18017"
   inkscape:cx="298.00698"
   inkscape:zoom="0.82972441"
   fit-margin-bottom="0"
   fit-margin-right="0"
   fit-margin-left="0"
   fit-margin-top="0"
   showgrid="false"
   id="namedview69"
   inkscape:window-height="1017"
   inkscape:window-width="1920"
   inkscape:pageshadow="2"
   inkscape:pageopacity="0"
   guidetolerance="10"
   gridtolerance="10"
   objecttolerance="10"
   borderopacity="1"
   bordercolor="#666666"
   pagecolor="#ffffff" />
<g
   transform="matrix(0.06692913,0,0,0.0822405,0,-2.3890865)"
   id="g6">
	<g
   id="g4">
		<rect
   id="rect2"
   height="16.4"
   width="16.4"
   y="241.35001"
   x="393.29999" />
	</g>
</g>
<g
   transform="matrix(0.06692913,0,0,0.0822405,0,-2.3890865)"
   id="g12">
	<g
   id="g10">
		<rect
   id="rect8"
   height="16.4"
   width="16.4"
   y="274.14999"
   x="393.29999" />
	</g>
</g>
<g
   transform="matrix(0.06692913,0,0,0.0822405,0,-2.3890865)"
   id="g18">
	<g
   id="g16">
		<rect
   id="rect14"
   height="16.4"
   width="16.4"
   y="306.95001"
   x="393.29999" />
	</g>
</g>
<g
   transform="matrix(0.06692913,0,0,0.0822405,0,-2.3890865)"
   id="g24">
	<g
   id="g22">
		<path
   id="path20"
   d="m 401.5,29.05 c -31.6,0 -57.4,25.7 -57.4,57.4 0,31.7 25.8,57.4 57.4,57.4 31.6,0 57.4,-25.7 57.4,-57.4 0,-31.7 -25.7,-57.4 -57.4,-57.4 z m 0,98.5 c -22.6,0 -41,-18.4 -41,-41 0,-22.6 18.4,-41 41,-41 22.6,0 41,18.4 41,41 0,22.6 -18.4,41 -41,41 z" />
	</g>
</g>
<g
   transform="matrix(0.06692913,0,0,0.0822405,0,-2.3890865)"
   id="g30">
	<g
   id="g28">
		<path
   id="path26"
   d="m 200.7,233.95 v -74.5 h -16.4 v 74.5 c -15.4,3.5 -27.1,16.7 -28.5,32.8 v -4.9 h -46.2 v 16.4 h 46.2 v -4.9 c 1.7,18.9 17.4,33.8 36.7,33.8 20.4,0 37,-16.6 37,-37 0.1,-17.7 -12.3,-32.5 -28.8,-36.2 z m -8.2,56.7 c -11.4,0 -20.7,-9.3 -20.7,-20.7 0,-11.4 9.3,-20.7 20.7,-20.7 11.4,0 20.7,9.3 20.7,20.7 0,11.4 -9.3,20.7 -20.7,20.7 z" />
	</g>
</g>
<g
   transform="matrix(0.06692913,0,0,0.0822405,0,-2.3890865)"
   id="g36">
	<g
   id="g34">
		<path
   id="path32"
   d="m 438.8,151.45 -4.4,-0.3 -32.9,43.8 -32.9,-43.8 -4.4,0.3 c -6.1,0.4 -12,1.6 -17.6,3.3 C 310.3,106.25 253.2,77.45 192.5,77.45 86.4,77.45 0,163.85 0,270.05 c 0,106.2 86.4,192.5 192.5,192.5 55,0 107.1,-23.6 143.4,-64.1 v 80.5 H 467 v -131.1 h 41 v -122.9 c 0,-38.9 -30.4,-71.2 -69.2,-73.5 z m -102.7,220.8 c -13.4,18.5 -29.9,34 -48.5,45.9 l -8,-13.9 -14.2,8.2 8.1,14 c -22.3,11.5 -47.1,18.3 -72.7,19.5 v -37.6 h -16.4 v 37.4 c -26.1,-1.2 -50.7,-8 -72.6,-19.4 l 8,-13.9 -14.2,-8.2 -8,13.9 c -21.3,-13.7 -39.4,-31.8 -53.1,-53.2 l 13.9,-8 -8.2,-14.2 -13.9,8 c -11.4,-21.9 -18.2,-46.5 -19.4,-72.6 h 37.4 v -16.4 H 16.8 c 1.2,-26.1 8,-50.7 19.4,-72.6 l 13.9,8 8.2,-14.2 -13.9,-8 c 13.7,-21.3 31.8,-39.4 53.1,-53.1 l 8,13.8 14.2,-8.2 -8,-13.9 c 21.9,-11.4 46.5,-18.2 72.6,-19.4 v 37.4 h 16.4 v -37.4 c 25.6,1.2 50.3,8 72.6,19.5 l -8,13.9 14.2,8.2 8.1,-13.9 c 16.5,10.6 31.3,24 43.7,39.7 -2.6,1.5 -5,3.2 -7.3,5 -0.6,0.4 -1.1,0.9 -1.6,1.3 -1.7,1.3 -3.3,2.8 -4.8,4.2 -0.7,0.6 -1.3,1.2 -1.9,1.9 -1.8,1.9 -3.5,3.8 -5.1,5.9 -0.6,0.8 -1.2,1.7 -1.8,2.5 -1,1.4 -2,2.9 -2.9,4.3 -0.6,1 -1.2,2 -1.8,3.1 -0.9,1.7 -1.7,3.4 -2.5,5.1 -0.4,0.8 -0.8,1.5 -1.1,2.3 -1,2.5 -1.9,5 -2.6,7.7 -0.2,0.8 -0.4,1.7 -0.6,2.6 -0.5,2 -0.9,4.1 -1.2,6.2 -0.1,0.9 -0.3,1.7 -0.4,2.6 -0.3,2.9 -0.6,5.8 -0.6,8.7 v 122.9 h 41 z m 155.6,-40.8 h -0.1 -41 v 131.1 h -41 v -114.9 h -16.4 v 114.9 h -41 v -85.1 -46 h -41 v -106.5 c 0,-2.6 0.2,-5.1 0.6,-7.7 0.1,-0.5 0.1,-1.1 0.2,-1.6 0.4,-2.4 0.9,-4.7 1.6,-7 0.2,-0.5 0.3,-1 0.5,-1.5 0.6,-2 1.4,-3.9 2.3,-5.8 0.2,-0.4 0.4,-0.9 0.6,-1.3 1,-2.1 2.2,-4 3.4,-5.9 0.4,-0.6 0.8,-1.2 1.2,-1.7 1.3,-1.9 2.7,-3.7 4.2,-5.4 0.3,-0.3 0.6,-0.6 0.9,-0.9 1.6,-1.7 3.3,-3.3 5.1,-4.9 0.2,-0.1 0.3,-0.3 0.5,-0.4 2.1,-1.7 4.3,-3.3 6.7,-4.7 0.1,0 0.2,-0.1 0.2,-0.1 2.4,-1.4 4.9,-2.7 7.6,-3.8 l 1.1,-0.4 c 4.1,-1.6 8.5,-2.8 13,-3.4 l 40.6,54 40.6,-54 c 28.1,3.8 49.6,28 49.6,56.8 z" />
	</g>
</g>
<g
   transform="matrix(0.06692913,0,0,0.0822405,0,-2.3890865)"
   id="g38">
</g>
<g
   transform="matrix(0.06692913,0,0,0.0822405,0,-2.3890865)"
   id="g40">
</g>
<g
   transform="matrix(0.06692913,0,0,0.0822405,0,-2.3890865)"
   id="g42">
</g>
<g
   transform="matrix(0.06692913,0,0,0.0822405,0,-2.3890865)"
   id="g44">
</g>
<g
   transform="matrix(0.06692913,0,0,0.0822405,0,-2.3890865)"
   id="g46">
</g>
<g
   transform="matrix(0.06692913,0,0,0.0822405,0,-2.3890865)"
   id="g48">
</g>
<g
   transform="matrix(0.06692913,0,0,0.0822405,0,-2.3890865)"
   id="g50">
</g>
<g
   transform="matrix(0.06692913,0,0,0.0822405,0,-2.3890865)"
   id="g52">
</g>
<g
   transform="matrix(0.06692913,0,0,0.0822405,0,-2.3890865)"
   id="g54">
</g>
<g
   transform="matrix(0.06692913,0,0,0.0822405,0,-2.3890865)"
   id="g56">
</g>
<g
   transform="matrix(0.06692913,0,0,0.0822405,0,-2.3890865)"
   id="g58">
</g>
<g
   transform="matrix(0.06692913,0,0,0.0822405,0,-2.3890865)"
   id="g60">
</g>
<g
   transform="matrix(0.06692913,0,0,0.0822405,0,-2.3890865)"
   id="g62">
</g>
<g
   transform="matrix(0.06692913,0,0,0.0822405,0,-2.3890865)"
   id="g64">
</g>
<g
   transform="matrix(0.06692913,0,0,0.0822405,0,-2.3890865)"
   id="g66">
</g>
</svg>
